<?xml version="1.0" encoding="utf-8"?>
<!-- Generator: Adobe Illustrator 22.1.0, SVG Export Plug-In . SVG Version: 6.00 Build 0)  -->
<svg version="1.1" id="Calque_1" xmlns="http://www.w3.org/2000/svg" xmlns:xlink="http://www.w3.org/1999/xlink" x="0px" y="0px"
	 viewBox="0 0 2000 1000" style="enable-background:new 0 0 2000 1000;" xml:space="preserve">
<style type="text/css">
	.st0{fill:#651FFF;}
	.st1{fill:#AB47BC;}
	.st2{fill:url(#SVGID_1_);}
</style>
<path class="st0" d="M245.9,311.9v329.8h-62.7v-19.3c-16,14.1-36.3,23.1-60.8,23.1c-65.5,0-107.9-51.8-107.9-117.3
	S57,411.3,122.5,411.3c24.5,0,44.8,9,60.8,23.1V311.9H245.9z M183.3,528.2c0-33.9-19.8-59.8-53.7-59.8c-33.9,0-53.7,25.9-53.7,59.8
	c0,33.9,19.8,59.8,53.7,59.8C163.5,588,183.3,562.1,183.3,528.2z"/>
<path class="st0" d="M504.1,528.2c0,65.5-49.5,117.3-115,117.3s-115-51.8-115-117.3s49.5-116.8,115-116.8S504.1,462.7,504.1,528.2z
	 M442.9,528.2c0-33.9-19.8-59.8-53.7-59.8c-33.9,0-53.7,25.9-53.7,59.8c0,33.9,19.8,59.8,53.7,59.8
	C423.1,588,442.9,562.1,442.9,528.2z"/>
<path class="st0" d="M679.9,567.7l51.8,25.4c-18.8,31.6-52.3,52.3-93.8,52.3c-65.5,0-115-51.8-115-117.3s49.5-116.8,115-116.8
	c41.5,0,74.9,20.7,93.8,52.3l-51.8,25c-9-12.2-23.1-20.3-41.9-20.3c-33.9,0-53.2,25.9-53.2,59.8c0,33.9,19.3,59.8,53.2,59.8
	C656.8,588,670.9,580.5,679.9,567.7z"/>
<path class="st0" d="M914,622.9c-11.8,11.3-33,21.2-59.8,21.2c-48.1,0-74.9-25-74.9-72.1v-97.1h-31.1v-60.3h31.1v-50.9l62.7-14.1v65
	h52.8v60.3h-52.8v76.8c0,20.3,5.2,32.5,25,32.5c8.5,0,20.3-3.8,26.4-9.4L914,622.9z"/>
<path class="st1" d="M1746.7,576.2c-1.4,41-38.2,68.8-90.5,68.8c-47.6,0-89.5-26.4-97.1-54.2l45.7-24.5
	c4.7,11.8,24.5,21.2,40.5,22.1c17,0.9,35.8-3.3,35.3-15.5c-0.5-12.7-11.3-14.1-42.9-25c-49.5-17.4-71.1-34.4-69.7-71.6
	c1.4-31.6,26.9-64.5,85.7-64.5c54.7,0,80.6,35.3,83.9,56.1l-48.1,13.7c-2.4-7.5-9.9-18.4-27.3-19.8c-24-1.9-30.2,9.9-29.7,16
	c0.5,8.5,7.1,14.1,42.9,25C1728.8,519.2,1748.1,541.8,1746.7,576.2z"/>
<path class="st1" d="M1852.7,556l-19.3,20.7v65h-62.7V311.9h62.7v179l70.2-76.3h80.1l-90.5,97.5l93.8,129.6h-72.6L1852.7,556z"/>
<path class="st1" d="M1538.2,410.2v231.5h-62.7v-19.3c-16,14.1-36.3,23.1-60.8,23.1c-65.5,0-107.9-51.8-107.9-117.3
	s42.4-116.8,107.9-116.8c24.5,0,44.8,9,60.8,23.1v-24.2H1538.2z M1475.5,528.2c0-33.9-19.8-59.8-53.7-59.8
	c-33.9,0-53.7,25.9-53.7,59.8c0,33.9,19.8,59.8,53.7,59.8C1455.7,588,1475.5,562.1,1475.5,528.2z"/>
<polygon class="st0" points="975.5,576.7 929.1,682.4 1057.9,660.2 "/>
<g>
	
		<linearGradient id="SVGID_1_" gradientUnits="userSpaceOnUse" x1="95.6587" y1="-1784.7002" x2="217.6716" y2="-1784.7002" gradientTransform="matrix(-1 0 0 1 1270.2422 2313.2073)">
		<stop  offset="0" style="stop-color:#651FFF"/>
		<stop  offset="1" style="stop-color:#AB47BC"/>
	</linearGradient>
	<path class="st2" d="M1092.8,568.2c-16.4-15.4-36.7-34.5-39.5-51.5c-2-12,0-21.9,5.7-29.5c5.8-7.6,14.6-11.9,26.9-13.3
		c1.2-0.1,2.3-0.2,3.3-0.2c8.7,0,17.5,3.2,24.3,8.7c6.8-5.5,15.6-8.7,24.3-8.7c1.1,0,2.2,0.1,3.4,0.2c12.3,1.3,21.1,5.7,26.9,13.3
		c5.7,7.5,7.6,17.4,5.7,29.5c-2.8,17-23.1,36.1-39.5,51.5c0,0-8.2,8.2-10.6,10.3c-1.8,1.6-5.8,4.8-10.2,4.8c-4.3,0-8.3-3.2-10.2-4.8
		C1100.9,576.4,1092.8,568.2,1092.8,568.2z"/>
</g>
<path class="st0" d="M1114.6,357.3c-92,0-166.6,74.6-166.6,166.6s74.6,166.6,166.6,166.6s166.6-74.6,166.6-166.6
	S1206.6,357.3,1114.6,357.3z M1227.7,640.5l-58.7-13.3c-16.2,8.6-34.7,13.4-54.4,13.4c-64.5,0-116.8-52.3-116.8-116.8
	S1050.1,407,1114.6,407c64.5,0,116.8,52.3,116.8,116.8c0,18.5-4.3,36-12,51.5l-8,11.3L1227.7,640.5z"/>
</svg>
